<svg xmlns="http://www.w3.org/2000/svg" width="800" height="600" viewBox="0 0 800 600"><defs><pattern id="hatch" width="6" height="6" patternTransform="rotate(45)" patternUnits="userSpaceOnUse"><line x1="0" y1="0" x2="0" y2="6" stroke="#c8d0da" stroke-width="1.2" /></pattern></defs><rect width="800" height="600" fill="#0f1117" /><line x1="40.0" y1="560.0" x2="760.0" y2="560.0" stroke="#888888" stroke-width="4" stroke-opacity="1" /><text x="406.0" y="554.0" fill="#e6e6e6" font-size="14" font-family="sans-serif" text-anchor="start">floor</text><line x1="184.0" y1="560.0" x2="542.9" y2="392.64" stroke="#888888" stroke-width="4" stroke-opacity="1" /><text x="369.4" y="470.3" fill="#e6e6e6" font-size="14" font-family="sans-serif" text-anchor="start">ramp</text><circle cx="428.8" cy="372.8" r="28.8" fill="#2a3f6b" fill-opacity="0.35" stroke="#8bd" stroke-opacity="1" stroke-width="2" /><text x="434.8" y="366.8" fill="#e6e6e6" font-size="14" font-family="sans-serif" text-anchor="start">ball</text><polyline points="256.0,272.0 342.4,336.8 428.8,372.8 500.8,322.4 572.8,329.6 630.4,416.0" fill="none" stroke="#ffd43b" stroke-width="2" stroke-dasharray="5,4" /><text x="636.4" y="416.0" fill="#ffd43b" font-size="13" font-family="sans-serif">incident -&gt; rebound</text><line x1="428.8" y1="372.8" x2="515.2" y2="459.2" stroke="#4dabf7" stroke-width="3" /><polygon points="515.2,459.2 505.6,456.4 512.4,449.6" fill="#4dabf7" /><text x="521.2" y="453.2" fill="#4dabf7" font-size="13" font-family="sans-serif" text-anchor="start">v_in</text><line x1="428.8" y1="372.8" x2="398.56" y2="309.44" stroke="#51cf66" stroke-width="3" /><polygon points="398.56,309.44 406.7,315.3 398.0,319.4" fill="#51cf66" /><text x="404.6" y="303.4" fill="#51cf66" font-size="13" font-family="sans-serif" text-anchor="start">n</text><line x1="428.8" y1="372.8" x2="515.2" y2="310.88" stroke="#ff2d95" stroke-width="3" /><polygon points="515.2,310.88 510.9,319.9 505.3,312.1" fill="#ff2d95" /><text x="521.2" y="304.9" fill="#ff2d95" font-size="13" font-family="sans-serif" text-anchor="start">v_out</text><circle cx="428.8" cy="372.8" r="6" fill="#ff4444" stroke="#ffffff" stroke-width="1.5" /><text x="434.8" y="366.8" fill="#ff4444" font-size="14" font-family="sans-serif" text-anchor="start" font-weight="bold">impact</text></svg>